<svg width="20" height="20" viewBox="0 0 20 20" fill="none" xmlns="http://www.w3.org/2000/svg">
<path d="M13.7084 0.666504H16.6673C18.1401 0.666504 19.334 1.86041 19.334 3.33317V5.99984C19.334 13.3636 13.3644 19.3332 6.00065 19.3332H3.33399C1.86123 19.3332 0.667319 18.1393 0.667319 16.6665V14.8239C0.667319 14.3189 0.952654 13.8572 1.40437 13.6313L4.62561 12.0207C5.35134 11.6578 6.23022 12.0219 6.4868 12.7916L6.88383 13.9827C7.141 14.7542 7.93242 15.2135 8.72987 15.054C11.9216 14.4156 14.4165 11.9208 15.0548 8.72906C15.2143 7.9316 14.755 7.14018 13.9835 6.88301L12.5053 6.39029C11.8444 6.16997 11.4645 5.47791 11.6334 4.80199L12.4148 1.67646C12.5632 1.0829 13.0965 0.666504 13.7084 0.666504Z" stroke="black"/>
</svg>
